<?xml version="1.0" encoding="UTF-8"?>
<svg version="1.1" xmlns="http://www.w3.org/2000/svg" width="158" height="158">
<path d="M0 0 C1.98 0.33 3.96 0.66 6 1 C7.1483058 4.41584072 8.29321208 7.83281142 9.4375 11.25 C9.76298828 12.21808594 10.08847656 13.18617187 10.42382812 14.18359375 C10.73642578 15.11816406 11.04902344 16.05273438 11.37109375 17.015625 C11.65911865 17.87446289 11.94714355 18.73330078 12.24389648 19.61816406 C12.91146327 21.72109643 13.46488209 23.85952838 14 26 C24.89 26.99 24.89 26.99 36 28 C37.22976562 26.0509375 38.45953125 24.101875 39.7265625 22.09375 C40.93294852 20.21396727 42.14649746 18.33900538 43.36083984 16.46435547 C44.20048151 15.15965156 45.032598 13.85007263 45.85693359 12.53564453 C47.0439674 10.64581815 48.25704991 8.77523337 49.4765625 6.90625 C49.83932281 6.31565796 50.20208313 5.72506592 50.57583618 5.11657715 C51.66650391 3.47851563 51.66650391 3.47851563 54 1 C57.28271484 0.63085938 57.28271484 0.63085938 60 1 C64.78799473 15.4735837 69.30975401 30.03335865 73.67810059 44.63870239 C74.22238135 46.45074182 74.77187537 48.26122419 75.32678223 50.07003784 C79.59247016 64.00191078 82.57507374 75.23726801 76 89 C71.08752028 98.09826126 64.72175896 103.54745167 55.6875 108.375 C48.90805728 112.3388505 45.55777667 117.38720151 41.77807617 124.18505859 C41.3679126 124.90516113 40.95774902 125.62526367 40.53515625 126.3671875 C40.188479 127.01800293 39.84180176 127.66881836 39.48461914 128.33935547 C35.94711294 132.29628972 29.07963515 132.77911856 24.05444336 133.97119141 C23.28131302 134.1568013 22.50818268 134.34241119 21.71162415 134.53364563 C19.17171007 135.14249979 16.63085058 135.7472863 14.08984375 136.3515625 C12.31675973 136.77461406 10.5436938 137.19774143 8.77064514 137.62094116 C5.06166906 138.50542791 1.35216426 139.38765798 -2.35766602 140.26855469 C-7.10919886 141.39719522 -11.85886327 142.53349692 -16.60810184 143.67174721 C-20.26604384 144.54718265 -23.92518597 145.41751494 -27.58468437 146.28641891 C-29.3365841 146.7032424 -31.08805047 147.12189166 -32.83906746 147.54240799 C-35.28608996 148.1294835 -37.7347022 148.709411 -40.18383789 149.28759766 C-40.90449432 149.4621196 -41.62515076 149.63664154 -42.36764526 149.81645203 C-45.95588647 150.6554927 -49.31305275 151.40040652 -53 151 C-53.66 150.34 -54.32 149.68 -55 149 C-54.63716644 145.44767723 -53.50179159 142.67670051 -51.83520508 139.54858398 C-51.38836868 138.70098007 -50.94153229 137.85337616 -50.4811554 136.98008728 C-49.99881943 136.07786942 -49.51648346 135.17565155 -49.01953125 134.24609375 C-48.01050937 132.32125613 -47.00206297 130.39611674 -45.99414062 128.47070312 C-44.40061609 125.44308043 -42.80226645 122.41829069 -41.19360352 119.39868164 C-39.64219885 116.48004976 -38.11083386 113.55161243 -36.58203125 110.62109375 C-36.09362259 109.71685165 -35.60521393 108.81260956 -35.102005 107.88096619 C-34.66462509 107.03651443 -34.22724518 106.19206268 -33.77661133 105.32202148 C-33.38435867 104.58209457 -32.99210602 103.84216766 -32.58796692 103.07981873 C-31.77007728 100.97082816 -31.77007728 100.97082816 -32.80131531 98.85975647 C-34.13611463 96.78881848 -35.51530151 94.76206708 -36.9375 92.75 C-43.41603385 82.96091952 -44.65722206 73.66174728 -42.4140625 61.9375 C-40.4388845 55.55894353 -37.07220654 51.46741644 -32.48828125 46.7109375 C-24.30517965 37.79559604 -17.94368697 27.03334566 -11.29394531 16.95703125 C-8.99834953 13.48505091 -6.68551609 10.0245608 -4.375 6.5625 C-3.52857402 5.29301663 -2.68221292 4.02349 -1.8359375 2.75390625 C-0.92714844 1.39072266 -0.92714844 1.39072266 0 0 Z M-13.1015625 50.6953125 C-17.59917116 55.42258629 -20.21289125 60.49121606 -21 67 C-20.61192331 74.0881066 -17.77369736 79.37228671 -12.625 84.25 C-7.91262782 87.39158145 -3.84588787 88.60973131 1.8515625 87.66015625 C8.88386958 85.49932008 13.60126927 81.04772589 17.125 74.734375 C19.83157086 69.36956489 20.02574424 63.4933918 18.31640625 57.671875 C15.61530017 51.79893065 11.8915958 48.21447024 5.875 45.6875 C-1.12045362 44.01467413 -7.58114452 46.24203851 -13.1015625 50.6953125 Z M32.1875 54.9375 C28.01321281 60.78150207 26.98629506 65.88294654 28 73 C29.64995786 77.72889708 31.98210751 81.72236526 36.1875 84.5625 C40.68720688 86.66106178 45.15808825 86.96690616 50 86 C56.44325693 83.15087233 60.12689243 79.34477922 63 73 C64.7914557 67.62563291 64.71176628 62.93205434 62.375 57.8125 C59.90894279 53.33836764 56.59988363 50.29994182 52 48 C43.59029225 47.06217153 37.94210927 48.46356458 32.1875 54.9375 Z " fill="#000000" transform="translate(61,5)"/>
</svg>
